<svg xmlns="http://www.w3.org/2000/svg" width="141" height="23"><title>Groupon</title><path fill="#53a318" fill-rule="evenodd" d="M72.308 22.64c-4.978 0-7.98-3.057-7.98-8.548V.359h5.413v13.517c0 2.467.774 3.733 2.595 3.733 1.888 0 2.785-1.234 2.785-3.733V.359H80.5v13.733c0 5.369-3.274 8.549-8.192 8.549zm15.002-7.418v7.06h-5.373V.358h7.286c2.32 0 4.08.156 5.56 1.203C96.732 2.92 97.75 4.983 97.75 7.73c0 2.837-1.297 5.181-3.488 6.504-1.392.837-3.12.99-5.407.99H87.31zm.018-9.831h1.448c2.424 0 3.583.762 3.583 2.647 0 2.042-1.316 2.743-4.02 2.743h-1.01v-5.39zm40.246 4.682V22.28h-5.386V.36h4.854l8.09 12.182V.359h5.384v21.922h-4.735l-8.207-12.208zM51.584 23c-3.251 0-6.039-1.19-8.205-3.5-2.077-2.214-3.129-4.958-3.129-8.234 0-3.06 1.176-5.866 3.344-8.023C45.762 1.093 48.487 0 51.616 0c2.943 0 5.73 1.155 7.866 3.279 2.232 2.214 3.409 5.053 3.409 8.083 0 3.18-1.119 6.018-3.192 8.172C57.564 21.78 54.651 23 51.584 23zm-.1-17.61c3.092 0 5.657 2.558 5.657 5.758 0 3.577-2.565 6.102-5.72 6.102-3.027 0-5.78-2.649-5.78-6.102 0-3.2 2.567-5.757 5.843-5.757zM109.808 23c-3.253 0-6.039-1.19-8.206-3.5-2.078-2.214-3.133-4.958-3.133-8.234 0-3.06 1.176-5.866 3.348-8.023C103.988 1.093 106.709 0 109.838 0c2.945 0 5.726 1.155 7.868 3.279 2.227 2.214 3.403 5.053 3.403 8.083 0 3.18-1.111 6.018-3.189 8.172A11.122 11.122 0 0 1 109.808 23zm-.11-17.61c3.096 0 5.661 2.558 5.661 5.758 0 3.577-2.565 6.102-5.718 6.102-3.032 0-5.782-2.649-5.782-6.102 0-3.2 2.566-5.757 5.838-5.757zM3.085 19.48C1.04 17.272 0 14.535 0 11.268c0-3.051 1.16-5.85 3.302-8.001C5.439 1.122 8.132 0 11.215 0c4.649 0 8.711 2.894 10.454 7.628h-6.053c-1.343-1.434-2.752-2.15-4.46-2.15-3.178 0-5.683 2.643-5.683 5.82 0 3.517 2.687 6.224 5.682 6.224 2.019 0 3.82-1.056 4.89-2.987h-6.2v-4.418h12.377c.028.493.06.996.06 1.46 0 2.49-.613 4.606-1.867 6.476-2.078 3.082-5.56 4.947-9.26 4.947-3.208 0-5.928-1.216-8.07-3.52zm25.992-4.258v7.059h-5.36V.359h7.272c2.308 0 4.06.156 5.543 1.203C38.473 2.92 39.49 4.983 39.49 7.7c0 3.544-1.848 6.198-4.957 7.061l5.359 7.521h-6.623l-4.19-7.06zm.031-9.831h1.493c2.388 0 3.539.762 3.539 2.647 0 2.042-1.306 2.743-3.975 2.743h-1.057v-5.39z"></path></svg>